<?xml version="1.0" encoding="utf-8" standalone="no"?>
<!DOCTYPE svg PUBLIC "-//W3C//DTD SVG 1.1//EN"
  "http://www.w3.org/Graphics/SVG/1.1/DTD/svg11.dtd">
<svg xmlns:xlink="http://www.w3.org/1999/xlink" width="432pt" height="288pt" viewBox="0 0 432 288" xmlns="http://www.w3.org/2000/svg" version="1.1">
 <metadata>
  <rdf:RDF xmlns:dc="http://purl.org/dc/elements/1.1/" xmlns:cc="http://creativecommons.org/ns#" xmlns:rdf="http://www.w3.org/1999/02/22-rdf-syntax-ns#">
   <cc:Work>
    <dc:type rdf:resource="http://purl.org/dc/dcmitype/StillImage"/>
    <dc:date>2023-08-31T18:56:17.846313</dc:date>
    <dc:format>image/svg+xml</dc:format>
    <dc:creator>
     <cc:Agent>
      <dc:title>Matplotlib v3.7.2, https://matplotlib.org/</dc:title>
     </cc:Agent>
    </dc:creator>
   </cc:Work>
  </rdf:RDF>
 </metadata>
 <defs>
  <style type="text/css">*{stroke-linejoin: round; stroke-linecap: butt}</style>
 </defs>
 <g id="figure_1">
  <g id="patch_1">
   <path d="M 0 288 
L 432 288 
L 432 0 
L 0 0 
z
" style="fill: #ffffff"/>
  </g>
  <g id="axes_1">
   <g id="patch_2">
    <path d="M 182.639145 58.093498 
Q 136.606944 84.348902 91.54591 110.05038 
" clip-path="url(#pd085321ad9)" style="fill: none; stroke: #000000; stroke-linecap: round"/>
    <path d="M 96.011357 109.805874 
L 91.54591 110.05038 
L 94.029574 106.331319 
z
" clip-path="url(#pd085321ad9)" style="stroke: #000000; stroke-linecap: round"/>
   </g>
   <g id="patch_3">
    <path d="M 184.449982 60.317663 
Q 163.382722 84.349946 143.052464 107.541499 
" clip-path="url(#pd085321ad9)" style="fill: none; stroke: #000000; stroke-linecap: round"/>
    <path d="M 147.19319 105.852004 
L 143.052464 107.541499 
L 144.185304 103.215222 
z
" clip-path="url(#pd085321ad9)" style="stroke: #000000; stroke-linecap: round"/>
   </g>
   <g id="patch_4">
    <path d="M 190.160331 62.465391 
Q 190.160331 84.348739 190.160331 105.114053 
" clip-path="url(#pd085321ad9)" style="fill: none; stroke: #000000; stroke-linecap: round"/>
    <path d="M 192.160331 101.114053 
L 190.160331 105.114053 
L 188.160331 101.114053 
z
" clip-path="url(#pd085321ad9)" style="stroke: #000000; stroke-linecap: round"/>
   </g>
   <g id="patch_5">
    <path d="M 195.870679 60.317663 
Q 216.93794 84.349946 237.268197 107.541499 
" clip-path="url(#pd085321ad9)" style="fill: none; stroke: #000000; stroke-linecap: round"/>
    <path d="M 236.135357 103.215222 
L 237.268197 107.541499 
L 233.127471 105.852004 
z
" clip-path="url(#pd085321ad9)" style="stroke: #000000; stroke-linecap: round"/>
   </g>
   <g id="patch_6">
    <path d="M 197.681516 58.093498 
Q 243.713718 84.348902 288.774751 110.05038 
" clip-path="url(#pd085321ad9)" style="fill: none; stroke: #000000; stroke-linecap: round"/>
    <path d="M 286.291087 106.331319 
L 288.774751 110.05038 
L 284.309304 109.805874 
z
" clip-path="url(#pd085321ad9)" style="stroke: #000000; stroke-linecap: round"/>
   </g>
   <g id="patch_7">
    <path d="M 133.130392 122.825476 
Q 123.21866 145.438908 113.755755 167.02835 
" clip-path="url(#pd085321ad9)" style="fill: none; stroke: #000000; stroke-linecap: round"/>
    <path d="M 117.193295 164.167699 
L 113.755755 167.02835 
L 113.529758 162.561928 
z
" clip-path="url(#pd085321ad9)" style="stroke: #000000; stroke-linecap: round"/>
   </g>
   <g id="patch_8">
    <path d="M 139.035226 123.205803 
Q 145.531762 145.438393 151.714714 166.597828 
" clip-path="url(#pd085321ad9)" style="fill: none; stroke: #000000; stroke-linecap: round"/>
    <path d="M 152.512519 162.197429 
L 151.714714 166.597828 
L 148.673078 163.319344 
z
" clip-path="url(#pd085321ad9)" style="stroke: #000000; stroke-linecap: round"/>
   </g>
   <g id="patch_9">
    <path d="M 238.003701 121.408572 
Q 216.936441 145.440855 196.606183 168.632408 
" clip-path="url(#pd085321ad9)" style="fill: none; stroke: #000000; stroke-linecap: round"/>
    <path d="M 200.746909 166.942914 
L 196.606183 168.632408 
L 197.739023 164.306131 
z
" clip-path="url(#pd085321ad9)" style="stroke: #000000; stroke-linecap: round"/>
   </g>
   <g id="patch_10">
    <path d="M 241.285435 123.205803 
Q 234.788899 145.438393 228.605948 166.597828 
" clip-path="url(#pd085321ad9)" style="fill: none; stroke: #000000; stroke-linecap: round"/>
    <path d="M 231.647583 163.319344 
L 228.605948 166.597828 
L 227.808142 162.197429 
z
" clip-path="url(#pd085321ad9)" style="stroke: #000000; stroke-linecap: round"/>
   </g>
   <g id="patch_11">
    <path d="M 292.89866 122.370575 
Q 279.416934 145.439306 266.499332 167.542758 
" clip-path="url(#pd085321ad9)" style="fill: none; stroke: #000000; stroke-linecap: round"/>
    <path d="M 270.244348 165.098407 
L 266.499332 167.542758 
L 266.790861 163.080135 
z
" clip-path="url(#pd085321ad9)" style="stroke: #000000; stroke-linecap: round"/>
   </g>
   <g id="patch_12">
    <path d="M 297.267769 123.5563 
Q 297.267769 145.439648 297.267769 166.204962 
" clip-path="url(#pd085321ad9)" style="fill: none; stroke: #000000; stroke-linecap: round"/>
    <path d="M 299.267769 162.204962 
L 297.267769 166.204962 
L 295.267769 162.204962 
z
" clip-path="url(#pd085321ad9)" style="stroke: #000000; stroke-linecap: round"/>
   </g>
   <g id="patch_13">
    <path d="M 301.636877 122.370575 
Q 315.118603 145.439306 328.036205 167.542758 
" clip-path="url(#pd085321ad9)" style="fill: none; stroke: #000000; stroke-linecap: round"/>
    <path d="M 327.744677 163.080135 
L 328.036205 167.542758 
L 324.291189 165.098407 
z
" clip-path="url(#pd085321ad9)" style="stroke: #000000; stroke-linecap: round"/>
   </g>
   <g id="patch_14">
    <path d="M 106.353533 183.916385 
Q 96.441801 206.529817 86.978896 228.11926 
" clip-path="url(#pd085321ad9)" style="fill: none; stroke: #000000; stroke-linecap: round"/>
    <path d="M 90.416435 225.258608 
L 86.978896 228.11926 
L 86.752899 223.652838 
z
" clip-path="url(#pd085321ad9)" style="stroke: #000000; stroke-linecap: round"/>
   </g>
   <g id="patch_15">
    <path d="M 113.305972 183.916385 
Q 123.217703 206.529817 132.680608 228.11926 
" clip-path="url(#pd085321ad9)" style="fill: none; stroke: #000000; stroke-linecap: round"/>
    <path d="M 132.906606 223.652838 
L 132.680608 228.11926 
L 129.243069 225.258608 
z
" clip-path="url(#pd085321ad9)" style="stroke: #000000; stroke-linecap: round"/>
   </g>
   <g id="patch_16">
    <path d="M 329.494028 183.916385 
Q 319.582297 206.529817 310.119392 228.11926 
" clip-path="url(#pd085321ad9)" style="fill: none; stroke: #000000; stroke-linecap: round"/>
    <path d="M 313.556931 225.258608 
L 310.119392 228.11926 
L 309.893394 223.652838 
z
" clip-path="url(#pd085321ad9)" style="stroke: #000000; stroke-linecap: round"/>
   </g>
   <g id="patch_17">
    <path d="M 336.446467 183.916385 
Q 346.358199 206.529817 355.821104 228.11926 
" clip-path="url(#pd085321ad9)" style="fill: none; stroke: #000000; stroke-linecap: round"/>
    <path d="M 356.047101 223.652838 
L 355.821104 228.11926 
L 352.383565 225.258608 
z
" clip-path="url(#pd085321ad9)" style="stroke: #000000; stroke-linecap: round"/>
   </g>
   <g id="PathCollection_1">
    <defs>
     <path id="m3d48c44ea1" d="M 0 8.660254 
C 2.296726 8.660254 4.499694 7.747755 6.123724 6.123724 
C 7.747755 4.499694 8.660254 2.296726 8.660254 0 
C 8.660254 -2.296726 7.747755 -4.499694 6.123724 -6.123724 
C 4.499694 -7.747755 2.296726 -8.660254 0 -8.660254 
C -2.296726 -8.660254 -4.499694 -7.747755 -6.123724 -6.123724 
C -7.747755 -4.499694 -8.660254 -2.296726 -8.660254 0 
C -8.660254 2.296726 -7.747755 4.499694 -6.123724 6.123724 
C -4.499694 7.747755 -2.296726 8.660254 0 8.660254 
z
" style="stroke: #ffe4c4"/>
    </defs>
    <g clip-path="url(#pd085321ad9)">
     <use xlink:href="#m3d48c44ea1" x="83.052893" y="114.894545" style="fill: #ffe4c4; stroke: #ffe4c4"/>
     <use xlink:href="#m3d48c44ea1" x="83.052893" y="237.076364" style="fill: #ffe4c4; stroke: #ffe4c4"/>
     <use xlink:href="#m3d48c44ea1" x="136.606612" y="237.076364" style="fill: #ffe4c4; stroke: #ffe4c4"/>
     <use xlink:href="#m3d48c44ea1" x="154.457851" y="175.985455" style="fill: #ffe4c4; stroke: #ffe4c4"/>
     <use xlink:href="#m3d48c44ea1" x="190.160331" y="114.894545" style="fill: #ffe4c4; stroke: #ffe4c4"/>
     <use xlink:href="#m3d48c44ea1" x="190.160331" y="175.985455" style="fill: #ffe4c4; stroke: #ffe4c4"/>
     <use xlink:href="#m3d48c44ea1" x="225.86281" y="175.985455" style="fill: #ffe4c4; stroke: #ffe4c4"/>
     <use xlink:href="#m3d48c44ea1" x="261.565289" y="175.985455" style="fill: #ffe4c4; stroke: #ffe4c4"/>
     <use xlink:href="#m3d48c44ea1" x="297.267769" y="175.985455" style="fill: #ffe4c4; stroke: #ffe4c4"/>
     <use xlink:href="#m3d48c44ea1" x="306.193388" y="237.076364" style="fill: #ffe4c4; stroke: #ffe4c4"/>
     <use xlink:href="#m3d48c44ea1" x="359.747107" y="237.076364" style="fill: #ffe4c4; stroke: #ffe4c4"/>
     <use xlink:href="#m3d48c44ea1" x="190.160331" y="53.803636" style="fill: #ffe4c4; stroke: #ffe4c4"/>
     <use xlink:href="#m3d48c44ea1" x="136.606612" y="114.894545" style="fill: #ffe4c4; stroke: #ffe4c4"/>
     <use xlink:href="#m3d48c44ea1" x="243.71405" y="114.894545" style="fill: #ffe4c4; stroke: #ffe4c4"/>
     <use xlink:href="#m3d48c44ea1" x="297.267769" y="114.894545" style="fill: #ffe4c4; stroke: #ffe4c4"/>
     <use xlink:href="#m3d48c44ea1" x="109.829752" y="175.985455" style="fill: #ffe4c4; stroke: #ffe4c4"/>
     <use xlink:href="#m3d48c44ea1" x="332.970248" y="175.985455" style="fill: #ffe4c4; stroke: #ffe4c4"/>
    </g>
   </g>
   <g id="text_1">
    <g clip-path="url(#pd085321ad9)">
     <!-- 1 -->
     <g transform="translate(79.235393 118.205795) scale(0.12 -0.12)">
      <defs>
       <path id="DejaVuSans-31" d="M 794 531 
L 1825 531 
L 1825 4091 
L 703 3866 
L 703 4441 
L 1819 4666 
L 2450 4666 
L 2450 531 
L 3481 531 
L 3481 0 
L 794 0 
L 794 531 
z
" transform="scale(0.015625)"/>
      </defs>
      <use xlink:href="#DejaVuSans-31"/>
     </g>
    </g>
   </g>
   <g id="text_2">
    <g clip-path="url(#pd085321ad9)">
     <!-- 2 -->
     <g transform="translate(79.235393 240.387614) scale(0.12 -0.12)">
      <defs>
       <path id="DejaVuSans-32" d="M 1228 531 
L 3431 531 
L 3431 0 
L 469 0 
L 469 531 
Q 828 903 1448 1529 
Q 2069 2156 2228 2338 
Q 2531 2678 2651 2914 
Q 2772 3150 2772 3378 
Q 2772 3750 2511 3984 
Q 2250 4219 1831 4219 
Q 1534 4219 1204 4116 
Q 875 4013 500 3803 
L 500 4441 
Q 881 4594 1212 4672 
Q 1544 4750 1819 4750 
Q 2544 4750 2975 4387 
Q 3406 4025 3406 3419 
Q 3406 3131 3298 2873 
Q 3191 2616 2906 2266 
Q 2828 2175 2409 1742 
Q 1991 1309 1228 531 
z
" transform="scale(0.015625)"/>
      </defs>
      <use xlink:href="#DejaVuSans-32"/>
     </g>
    </g>
   </g>
   <g id="text_3">
    <g clip-path="url(#pd085321ad9)">
     <!-- 3 -->
     <g transform="translate(132.789112 240.387614) scale(0.12 -0.12)">
      <defs>
       <path id="DejaVuSans-33" d="M 2597 2516 
Q 3050 2419 3304 2112 
Q 3559 1806 3559 1356 
Q 3559 666 3084 287 
Q 2609 -91 1734 -91 
Q 1441 -91 1130 -33 
Q 819 25 488 141 
L 488 750 
Q 750 597 1062 519 
Q 1375 441 1716 441 
Q 2309 441 2620 675 
Q 2931 909 2931 1356 
Q 2931 1769 2642 2001 
Q 2353 2234 1838 2234 
L 1294 2234 
L 1294 2753 
L 1863 2753 
Q 2328 2753 2575 2939 
Q 2822 3125 2822 3475 
Q 2822 3834 2567 4026 
Q 2313 4219 1838 4219 
Q 1578 4219 1281 4162 
Q 984 4106 628 3988 
L 628 4550 
Q 988 4650 1302 4700 
Q 1616 4750 1894 4750 
Q 2613 4750 3031 4423 
Q 3450 4097 3450 3541 
Q 3450 3153 3228 2886 
Q 3006 2619 2597 2516 
z
" transform="scale(0.015625)"/>
      </defs>
      <use xlink:href="#DejaVuSans-33"/>
     </g>
    </g>
   </g>
   <g id="text_4">
    <g clip-path="url(#pd085321ad9)">
     <!-- 4 -->
     <g transform="translate(150.640351 179.296705) scale(0.12 -0.12)">
      <defs>
       <path id="DejaVuSans-34" d="M 2419 4116 
L 825 1625 
L 2419 1625 
L 2419 4116 
z
M 2253 4666 
L 3047 4666 
L 3047 1625 
L 3713 1625 
L 3713 1100 
L 3047 1100 
L 3047 0 
L 2419 0 
L 2419 1100 
L 313 1100 
L 313 1709 
L 2253 4666 
z
" transform="scale(0.015625)"/>
      </defs>
      <use xlink:href="#DejaVuSans-34"/>
     </g>
    </g>
   </g>
   <g id="text_5">
    <g clip-path="url(#pd085321ad9)">
     <!-- 5 -->
     <g transform="translate(186.342831 118.205795) scale(0.12 -0.12)">
      <defs>
       <path id="DejaVuSans-35" d="M 691 4666 
L 3169 4666 
L 3169 4134 
L 1269 4134 
L 1269 2991 
Q 1406 3038 1543 3061 
Q 1681 3084 1819 3084 
Q 2600 3084 3056 2656 
Q 3513 2228 3513 1497 
Q 3513 744 3044 326 
Q 2575 -91 1722 -91 
Q 1428 -91 1123 -41 
Q 819 9 494 109 
L 494 744 
Q 775 591 1075 516 
Q 1375 441 1709 441 
Q 2250 441 2565 725 
Q 2881 1009 2881 1497 
Q 2881 1984 2565 2268 
Q 2250 2553 1709 2553 
Q 1456 2553 1204 2497 
Q 953 2441 691 2322 
L 691 4666 
z
" transform="scale(0.015625)"/>
      </defs>
      <use xlink:href="#DejaVuSans-35"/>
     </g>
    </g>
   </g>
   <g id="text_6">
    <g clip-path="url(#pd085321ad9)">
     <!-- 6 -->
     <g transform="translate(186.342831 179.296705) scale(0.12 -0.12)">
      <defs>
       <path id="DejaVuSans-36" d="M 2113 2584 
Q 1688 2584 1439 2293 
Q 1191 2003 1191 1497 
Q 1191 994 1439 701 
Q 1688 409 2113 409 
Q 2538 409 2786 701 
Q 3034 994 3034 1497 
Q 3034 2003 2786 2293 
Q 2538 2584 2113 2584 
z
M 3366 4563 
L 3366 3988 
Q 3128 4100 2886 4159 
Q 2644 4219 2406 4219 
Q 1781 4219 1451 3797 
Q 1122 3375 1075 2522 
Q 1259 2794 1537 2939 
Q 1816 3084 2150 3084 
Q 2853 3084 3261 2657 
Q 3669 2231 3669 1497 
Q 3669 778 3244 343 
Q 2819 -91 2113 -91 
Q 1303 -91 875 529 
Q 447 1150 447 2328 
Q 447 3434 972 4092 
Q 1497 4750 2381 4750 
Q 2619 4750 2861 4703 
Q 3103 4656 3366 4563 
z
" transform="scale(0.015625)"/>
      </defs>
      <use xlink:href="#DejaVuSans-36"/>
     </g>
    </g>
   </g>
   <g id="text_7">
    <g clip-path="url(#pd085321ad9)">
     <!-- 7 -->
     <g transform="translate(222.04531 179.296705) scale(0.12 -0.12)">
      <defs>
       <path id="DejaVuSans-37" d="M 525 4666 
L 3525 4666 
L 3525 4397 
L 1831 0 
L 1172 0 
L 2766 4134 
L 525 4134 
L 525 4666 
z
" transform="scale(0.015625)"/>
      </defs>
      <use xlink:href="#DejaVuSans-37"/>
     </g>
    </g>
   </g>
   <g id="text_8">
    <g clip-path="url(#pd085321ad9)">
     <!-- 8 -->
     <g transform="translate(257.747789 179.296705) scale(0.12 -0.12)">
      <defs>
       <path id="DejaVuSans-38" d="M 2034 2216 
Q 1584 2216 1326 1975 
Q 1069 1734 1069 1313 
Q 1069 891 1326 650 
Q 1584 409 2034 409 
Q 2484 409 2743 651 
Q 3003 894 3003 1313 
Q 3003 1734 2745 1975 
Q 2488 2216 2034 2216 
z
M 1403 2484 
Q 997 2584 770 2862 
Q 544 3141 544 3541 
Q 544 4100 942 4425 
Q 1341 4750 2034 4750 
Q 2731 4750 3128 4425 
Q 3525 4100 3525 3541 
Q 3525 3141 3298 2862 
Q 3072 2584 2669 2484 
Q 3125 2378 3379 2068 
Q 3634 1759 3634 1313 
Q 3634 634 3220 271 
Q 2806 -91 2034 -91 
Q 1263 -91 848 271 
Q 434 634 434 1313 
Q 434 1759 690 2068 
Q 947 2378 1403 2484 
z
M 1172 3481 
Q 1172 3119 1398 2916 
Q 1625 2713 2034 2713 
Q 2441 2713 2670 2916 
Q 2900 3119 2900 3481 
Q 2900 3844 2670 4047 
Q 2441 4250 2034 4250 
Q 1625 4250 1398 4047 
Q 1172 3844 1172 3481 
z
" transform="scale(0.015625)"/>
      </defs>
      <use xlink:href="#DejaVuSans-38"/>
     </g>
    </g>
   </g>
   <g id="text_9">
    <g clip-path="url(#pd085321ad9)">
     <!-- 9 -->
     <g transform="translate(293.450269 179.296705) scale(0.12 -0.12)">
      <defs>
       <path id="DejaVuSans-39" d="M 703 97 
L 703 672 
Q 941 559 1184 500 
Q 1428 441 1663 441 
Q 2288 441 2617 861 
Q 2947 1281 2994 2138 
Q 2813 1869 2534 1725 
Q 2256 1581 1919 1581 
Q 1219 1581 811 2004 
Q 403 2428 403 3163 
Q 403 3881 828 4315 
Q 1253 4750 1959 4750 
Q 2769 4750 3195 4129 
Q 3622 3509 3622 2328 
Q 3622 1225 3098 567 
Q 2575 -91 1691 -91 
Q 1453 -91 1209 -44 
Q 966 3 703 97 
z
M 1959 2075 
Q 2384 2075 2632 2365 
Q 2881 2656 2881 3163 
Q 2881 3666 2632 3958 
Q 2384 4250 1959 4250 
Q 1534 4250 1286 3958 
Q 1038 3666 1038 3163 
Q 1038 2656 1286 2365 
Q 1534 2075 1959 2075 
z
" transform="scale(0.015625)"/>
      </defs>
      <use xlink:href="#DejaVuSans-39"/>
     </g>
    </g>
   </g>
   <g id="text_10">
    <g clip-path="url(#pd085321ad9)">
     <!-- 10 -->
     <g transform="translate(298.558388 240.387614) scale(0.12 -0.12)">
      <defs>
       <path id="DejaVuSans-30" d="M 2034 4250 
Q 1547 4250 1301 3770 
Q 1056 3291 1056 2328 
Q 1056 1369 1301 889 
Q 1547 409 2034 409 
Q 2525 409 2770 889 
Q 3016 1369 3016 2328 
Q 3016 3291 2770 3770 
Q 2525 4250 2034 4250 
z
M 2034 4750 
Q 2819 4750 3233 4129 
Q 3647 3509 3647 2328 
Q 3647 1150 3233 529 
Q 2819 -91 2034 -91 
Q 1250 -91 836 529 
Q 422 1150 422 2328 
Q 422 3509 836 4129 
Q 1250 4750 2034 4750 
z
" transform="scale(0.015625)"/>
      </defs>
      <use xlink:href="#DejaVuSans-31"/>
      <use xlink:href="#DejaVuSans-30" x="63.623047"/>
     </g>
    </g>
   </g>
   <g id="text_11">
    <g clip-path="url(#pd085321ad9)">
     <!-- 11 -->
     <g transform="translate(352.112107 240.387614) scale(0.12 -0.12)">
      <use xlink:href="#DejaVuSans-31"/>
      <use xlink:href="#DejaVuSans-31" x="63.623047"/>
     </g>
    </g>
   </g>
   <g id="text_12">
    <g clip-path="url(#pd085321ad9)">
     <!-- Prime -->
     <g transform="translate(172.977831 57.114886) scale(0.12 -0.12)">
      <defs>
       <path id="DejaVuSans-50" d="M 1259 4147 
L 1259 2394 
L 2053 2394 
Q 2494 2394 2734 2622 
Q 2975 2850 2975 3272 
Q 2975 3691 2734 3919 
Q 2494 4147 2053 4147 
L 1259 4147 
z
M 628 4666 
L 2053 4666 
Q 2838 4666 3239 4311 
Q 3641 3956 3641 3272 
Q 3641 2581 3239 2228 
Q 2838 1875 2053 1875 
L 1259 1875 
L 1259 0 
L 628 0 
L 628 4666 
z
" transform="scale(0.015625)"/>
       <path id="DejaVuSans-72" d="M 2631 2963 
Q 2534 3019 2420 3045 
Q 2306 3072 2169 3072 
Q 1681 3072 1420 2755 
Q 1159 2438 1159 1844 
L 1159 0 
L 581 0 
L 581 3500 
L 1159 3500 
L 1159 2956 
Q 1341 3275 1631 3429 
Q 1922 3584 2338 3584 
Q 2397 3584 2469 3576 
Q 2541 3569 2628 3553 
L 2631 2963 
z
" transform="scale(0.015625)"/>
       <path id="DejaVuSans-69" d="M 603 3500 
L 1178 3500 
L 1178 0 
L 603 0 
L 603 3500 
z
M 603 4863 
L 1178 4863 
L 1178 4134 
L 603 4134 
L 603 4863 
z
" transform="scale(0.015625)"/>
       <path id="DejaVuSans-6d" d="M 3328 2828 
Q 3544 3216 3844 3400 
Q 4144 3584 4550 3584 
Q 5097 3584 5394 3201 
Q 5691 2819 5691 2113 
L 5691 0 
L 5113 0 
L 5113 2094 
Q 5113 2597 4934 2840 
Q 4756 3084 4391 3084 
Q 3944 3084 3684 2787 
Q 3425 2491 3425 1978 
L 3425 0 
L 2847 0 
L 2847 2094 
Q 2847 2600 2669 2842 
Q 2491 3084 2119 3084 
Q 1678 3084 1418 2786 
Q 1159 2488 1159 1978 
L 1159 0 
L 581 0 
L 581 3500 
L 1159 3500 
L 1159 2956 
Q 1356 3278 1631 3431 
Q 1906 3584 2284 3584 
Q 2666 3584 2933 3390 
Q 3200 3197 3328 2828 
z
" transform="scale(0.015625)"/>
       <path id="DejaVuSans-65" d="M 3597 1894 
L 3597 1613 
L 953 1613 
Q 991 1019 1311 708 
Q 1631 397 2203 397 
Q 2534 397 2845 478 
Q 3156 559 3463 722 
L 3463 178 
Q 3153 47 2828 -22 
Q 2503 -91 2169 -91 
Q 1331 -91 842 396 
Q 353 884 353 1716 
Q 353 2575 817 3079 
Q 1281 3584 2069 3584 
Q 2775 3584 3186 3129 
Q 3597 2675 3597 1894 
z
M 3022 2063 
Q 3016 2534 2758 2815 
Q 2500 3097 2075 3097 
Q 1594 3097 1305 2825 
Q 1016 2553 972 2059 
L 3022 2063 
z
" transform="scale(0.015625)"/>
      </defs>
      <use xlink:href="#DejaVuSans-50"/>
      <use xlink:href="#DejaVuSans-72" x="58.552734"/>
      <use xlink:href="#DejaVuSans-69" x="99.666016"/>
      <use xlink:href="#DejaVuSans-6d" x="127.449219"/>
      <use xlink:href="#DejaVuSans-65" x="224.861328"/>
     </g>
    </g>
   </g>
   <g id="text_13">
    <g clip-path="url(#pd085321ad9)">
     <!-- Series -->
     <g transform="translate(118.154737 118.205795) scale(0.12 -0.12)">
      <defs>
       <path id="DejaVuSans-53" d="M 3425 4513 
L 3425 3897 
Q 3066 4069 2747 4153 
Q 2428 4238 2131 4238 
Q 1616 4238 1336 4038 
Q 1056 3838 1056 3469 
Q 1056 3159 1242 3001 
Q 1428 2844 1947 2747 
L 2328 2669 
Q 3034 2534 3370 2195 
Q 3706 1856 3706 1288 
Q 3706 609 3251 259 
Q 2797 -91 1919 -91 
Q 1588 -91 1214 -16 
Q 841 59 441 206 
L 441 856 
Q 825 641 1194 531 
Q 1563 422 1919 422 
Q 2459 422 2753 634 
Q 3047 847 3047 1241 
Q 3047 1584 2836 1778 
Q 2625 1972 2144 2069 
L 1759 2144 
Q 1053 2284 737 2584 
Q 422 2884 422 3419 
Q 422 4038 858 4394 
Q 1294 4750 2059 4750 
Q 2388 4750 2728 4690 
Q 3069 4631 3425 4513 
z
" transform="scale(0.015625)"/>
       <path id="DejaVuSans-73" d="M 2834 3397 
L 2834 2853 
Q 2591 2978 2328 3040 
Q 2066 3103 1784 3103 
Q 1356 3103 1142 2972 
Q 928 2841 928 2578 
Q 928 2378 1081 2264 
Q 1234 2150 1697 2047 
L 1894 2003 
Q 2506 1872 2764 1633 
Q 3022 1394 3022 966 
Q 3022 478 2636 193 
Q 2250 -91 1575 -91 
Q 1294 -91 989 -36 
Q 684 19 347 128 
L 347 722 
Q 666 556 975 473 
Q 1284 391 1588 391 
Q 1994 391 2212 530 
Q 2431 669 2431 922 
Q 2431 1156 2273 1281 
Q 2116 1406 1581 1522 
L 1381 1569 
Q 847 1681 609 1914 
Q 372 2147 372 2553 
Q 372 3047 722 3315 
Q 1072 3584 1716 3584 
Q 2034 3584 2315 3537 
Q 2597 3491 2834 3397 
z
" transform="scale(0.015625)"/>
      </defs>
      <use xlink:href="#DejaVuSans-53"/>
      <use xlink:href="#DejaVuSans-65" x="63.476562"/>
      <use xlink:href="#DejaVuSans-72" x="125"/>
      <use xlink:href="#DejaVuSans-69" x="166.113281"/>
      <use xlink:href="#DejaVuSans-65" x="193.896484"/>
      <use xlink:href="#DejaVuSans-73" x="255.419922"/>
     </g>
    </g>
   </g>
   <g id="text_14">
    <g clip-path="url(#pd085321ad9)">
     <!-- Parallel -->
     <g transform="translate(221.853425 118.205795) scale(0.12 -0.12)">
      <defs>
       <path id="DejaVuSans-61" d="M 2194 1759 
Q 1497 1759 1228 1600 
Q 959 1441 959 1056 
Q 959 750 1161 570 
Q 1363 391 1709 391 
Q 2188 391 2477 730 
Q 2766 1069 2766 1631 
L 2766 1759 
L 2194 1759 
z
M 3341 1997 
L 3341 0 
L 2766 0 
L 2766 531 
Q 2569 213 2275 61 
Q 1981 -91 1556 -91 
Q 1019 -91 701 211 
Q 384 513 384 1019 
Q 384 1609 779 1909 
Q 1175 2209 1959 2209 
L 2766 2209 
L 2766 2266 
Q 2766 2663 2505 2880 
Q 2244 3097 1772 3097 
Q 1472 3097 1187 3025 
Q 903 2953 641 2809 
L 641 3341 
Q 956 3463 1253 3523 
Q 1550 3584 1831 3584 
Q 2591 3584 2966 3190 
Q 3341 2797 3341 1997 
z
" transform="scale(0.015625)"/>
       <path id="DejaVuSans-6c" d="M 603 4863 
L 1178 4863 
L 1178 0 
L 603 0 
L 603 4863 
z
" transform="scale(0.015625)"/>
      </defs>
      <use xlink:href="#DejaVuSans-50"/>
      <use xlink:href="#DejaVuSans-61" x="55.802734"/>
      <use xlink:href="#DejaVuSans-72" x="117.082031"/>
      <use xlink:href="#DejaVuSans-61" x="158.195312"/>
      <use xlink:href="#DejaVuSans-6c" x="219.474609"/>
      <use xlink:href="#DejaVuSans-6c" x="247.257812"/>
      <use xlink:href="#DejaVuSans-65" x="275.041016"/>
      <use xlink:href="#DejaVuSans-6c" x="336.564453"/>
     </g>
    </g>
   </g>
   <g id="text_15">
    <g clip-path="url(#pd085321ad9)">
     <!-- Series -->
     <g transform="translate(278.815894 118.205795) scale(0.12 -0.12)">
      <use xlink:href="#DejaVuSans-53"/>
      <use xlink:href="#DejaVuSans-65" x="63.476562"/>
      <use xlink:href="#DejaVuSans-72" x="125"/>
      <use xlink:href="#DejaVuSans-69" x="166.113281"/>
      <use xlink:href="#DejaVuSans-65" x="193.896484"/>
      <use xlink:href="#DejaVuSans-73" x="255.419922"/>
     </g>
    </g>
   </g>
   <g id="text_16">
    <g clip-path="url(#pd085321ad9)">
     <!-- Parallel -->
     <g transform="translate(87.969127 179.296705) scale(0.12 -0.12)">
      <use xlink:href="#DejaVuSans-50"/>
      <use xlink:href="#DejaVuSans-61" x="55.802734"/>
      <use xlink:href="#DejaVuSans-72" x="117.082031"/>
      <use xlink:href="#DejaVuSans-61" x="158.195312"/>
      <use xlink:href="#DejaVuSans-6c" x="219.474609"/>
      <use xlink:href="#DejaVuSans-6c" x="247.257812"/>
      <use xlink:href="#DejaVuSans-65" x="275.041016"/>
      <use xlink:href="#DejaVuSans-6c" x="336.564453"/>
     </g>
    </g>
   </g>
   <g id="text_17">
    <g clip-path="url(#pd085321ad9)">
     <!-- Parallel -->
     <g transform="translate(311.109623 179.296705) scale(0.12 -0.12)">
      <use xlink:href="#DejaVuSans-50"/>
      <use xlink:href="#DejaVuSans-61" x="55.802734"/>
      <use xlink:href="#DejaVuSans-72" x="117.082031"/>
      <use xlink:href="#DejaVuSans-61" x="158.195312"/>
      <use xlink:href="#DejaVuSans-6c" x="219.474609"/>
      <use xlink:href="#DejaVuSans-6c" x="247.257812"/>
      <use xlink:href="#DejaVuSans-65" x="275.041016"/>
      <use xlink:href="#DejaVuSans-6c" x="336.564453"/>
     </g>
    </g>
   </g>
  </g>
 </g>
 <defs>
  <clipPath id="pd085321ad9">
   <rect x="54" y="34.56" width="334.8" height="221.76"/>
  </clipPath>
 </defs>
</svg>
